<svg width="324" height="907" viewBox="0 0 324 907" fill="none" xmlns="http://www.w3.org/2000/svg">
<path d="M321.283 0L324 837.198C324 848.612 315.948 857.858 306.056 857.858C304.501 857.858 303.233 859.314 303.233 861.106V893.527C303.233 900.951 297.972 907 291.499 907C285.027 907 279.766 900.951 279.766 893.527V861.779C279.766 859.621 278.236 857.858 276.354 857.858C274.472 857.858 272.942 859.621 272.942 861.779V868.55C272.942 874.183 268.957 878.766 264.055 878.766C259.154 878.766 255.169 874.183 255.169 868.55V861.106C255.169 859.314 253.901 857.858 252.346 857.858H237.119C235.572 857.858 234.32 856.423 234.32 854.641C234.32 852.859 235.572 851.424 237.119 851.424H252.346C256.986 851.424 260.766 855.76 260.766 861.096V868.54C260.766 870.629 262.247 872.322 264.055 872.322C265.864 872.322 267.345 870.629 267.345 868.54V861.769C267.345 856.067 271.387 851.424 276.354 851.424C281.32 851.424 285.363 856.067 285.363 861.769V893.517C285.363 897.397 288.112 900.565 291.499 900.565C294.887 900.565 297.636 897.407 297.636 893.517V861.096C297.636 855.76 301.416 851.424 306.056 851.424C312.864 851.424 318.403 845.058 318.403 837.238L315.687 0.0890963M5.59679 0.455381L8.30517 833.486C8.30517 843.405 15.293 851.434 23.8845 851.434C28.524 851.434 32.3043 855.77 32.3043 861.106V883.389C32.3043 885.854 34.0471 887.854 36.1909 887.854C38.3347 887.854 40.0776 885.854 40.0776 883.389V861.106C40.0776 855.77 43.8579 851.434 48.4973 851.434C53.1368 851.434 56.917 855.77 56.917 861.106V865.828C56.917 868.105 58.529 869.956 60.5173 869.956C62.5056 869.956 64.1176 868.105 64.1176 865.828V861.106C64.1176 855.77 67.8979 851.434 72.5373 851.434H101.086C105.725 851.434 109.506 855.77 109.506 861.106V895.467C109.506 897.922 111.24 899.912 113.376 899.912C115.511 899.912 117.246 897.922 117.246 895.467V862.878C117.246 856.572 121.714 851.444 127.204 851.444C132.695 851.444 137.162 856.572 137.162 862.878V876.975C137.162 879.588 139.011 881.716 141.294 881.716C143.577 881.716 145.426 879.588 145.426 876.975V861.115C145.426 855.78 149.207 851.444 153.846 851.444H224.534C226.081 851.444 227.333 852.879 227.333 854.661C227.333 856.443 226.081 857.878 224.534 857.878H153.846C152.292 857.878 151.023 859.333 151.023 861.125V876.984C151.023 883.142 146.662 888.161 141.294 888.161C135.927 888.161 131.565 883.152 131.565 876.984V862.887C131.565 860.125 129.61 857.878 127.204 857.878C124.799 857.878 122.843 860.125 122.843 862.887V895.477C122.843 901.476 118.596 906.347 113.376 906.347C108.155 906.347 103.909 901.466 103.909 895.477V861.115C103.909 859.324 102.641 857.868 101.086 857.868H72.5373C70.9827 857.868 69.7144 859.324 69.7144 861.115V865.838C69.7144 871.658 65.5904 876.4 60.5173 876.4C55.4442 876.4 51.3203 871.668 51.3203 865.838V861.115C51.3203 859.324 50.052 857.868 48.4973 857.868C46.9426 857.868 45.6744 859.324 45.6744 861.115V883.399C45.6744 889.408 41.4195 894.289 36.1909 894.289C30.9623 894.289 26.7075 889.399 26.7075 883.399V861.115C26.7075 859.324 25.4392 857.868 23.8845 857.868C12.2082 857.868 2.70839 846.959 2.70839 833.545L0 0.554377" fill="#FF4242"/>
<path d="M320.023 0L322.74 837.198C322.74 847.791 315.253 856.393 306.056 856.393C303.806 856.393 301.973 858.502 301.973 861.086V893.507C301.973 900.14 297.276 905.535 291.499 905.535C285.722 905.535 281.026 900.14 281.026 893.507V861.759C281.026 858.799 278.931 856.393 276.354 856.393C273.776 856.393 271.681 858.799 271.681 861.759V868.53C271.681 873.361 268.261 877.291 264.047 877.291C259.833 877.291 256.413 873.361 256.413 868.53V861.086C256.413 858.502 254.58 856.393 252.33 856.393H237.102C236.251 856.393 235.564 855.601 235.564 854.621C235.564 853.641 236.251 852.849 237.102 852.849H252.33C256.282 852.849 259.49 856.542 259.49 861.076V868.52C259.49 871.401 261.535 873.747 264.039 873.747C266.543 873.747 268.588 871.401 268.588 868.52V861.749C268.588 856.839 272.066 852.849 276.337 852.849C280.608 852.849 284.086 856.839 284.086 861.749V893.497C284.086 898.179 287.4 901.991 291.475 901.991C295.55 901.991 298.863 898.179 298.863 893.497V861.076C298.863 856.542 302.079 852.849 306.023 852.849C313.526 852.849 319.63 845.84 319.63 837.218L316.947 0.0494979M4.33661 0.455381L7.04499 833.486C7.04499 844.177 14.5974 852.859 23.8845 852.859C27.8366 852.859 31.0441 856.552 31.0441 861.086V883.37C31.0441 886.627 33.3515 889.28 36.1908 889.28C39.0301 889.28 41.3376 886.627 41.3376 883.37V861.086C41.3376 856.552 44.5533 852.859 48.4972 852.859C52.4412 852.859 55.6569 856.552 55.6569 861.086V865.808C55.6569 868.887 57.8334 871.381 60.509 871.381C63.1847 871.381 65.3612 868.877 65.3612 865.808V861.086C65.3612 856.552 68.5769 852.859 72.5209 852.859H101.069C105.022 852.859 108.229 856.552 108.229 861.086V895.447C108.229 898.694 110.528 901.337 113.359 901.337C116.191 901.337 118.49 898.694 118.49 895.447V862.858C118.49 857.354 122.393 852.869 127.188 852.869C131.983 852.869 135.886 857.354 135.886 862.858V876.955C135.886 880.37 138.308 883.142 141.278 883.142C144.248 883.142 146.67 880.36 146.67 876.955V861.096C146.67 856.562 149.886 852.869 153.83 852.869H224.518C225.369 852.869 226.056 853.661 226.056 854.641C226.056 855.621 225.369 856.413 224.518 856.413H153.83C151.58 856.413 149.747 858.522 149.747 861.106V876.965C149.747 882.33 145.95 886.696 141.278 886.696C136.606 886.696 132.809 882.33 132.809 876.965V862.868C132.809 859.304 130.289 856.413 127.188 856.413C124.087 856.413 121.566 859.304 121.566 862.868V895.457C121.566 900.654 117.884 904.881 113.359 904.881C108.835 904.881 105.152 900.654 105.152 895.457V861.096C105.152 858.512 103.32 856.403 101.069 856.403H72.5209C70.2707 856.403 68.4378 858.512 68.4378 861.096V865.818C68.4378 870.847 64.8785 874.935 60.5009 874.935C56.1233 874.935 52.5639 870.847 52.5639 865.818V861.096C52.5639 858.512 50.731 856.403 48.4809 856.403C46.2307 856.403 44.3978 858.512 44.3978 861.096V883.38C44.3978 888.587 40.7075 892.824 36.1745 892.824C31.6414 892.824 27.9511 888.587 27.9511 883.38V861.096C27.9511 858.512 26.1183 856.403 23.8681 856.403C12.8873 856.403 3.95203 846.137 3.95203 833.525L1.26001 0.504879" fill="#FFAEAF"/>
<path d="M319.05 0L321.766 837.198C321.766 847.157 314.721 855.245 306.064 855.245C303.274 855.245 300.999 857.849 300.999 861.056V893.477C300.999 899.486 296.744 904.377 291.508 904.377C286.271 904.377 282.016 899.486 282.016 893.477V861.729C282.016 858.155 279.479 855.235 276.362 855.235C273.244 855.235 270.708 858.146 270.708 861.729V868.501C270.708 872.718 267.721 876.143 264.055 876.143C260.39 876.143 257.403 872.718 257.403 868.501V861.056C257.403 857.849 255.128 855.245 252.338 855.245H237.111C236.8 855.245 236.554 854.958 236.554 854.602C236.554 854.245 236.808 853.958 237.111 853.958H252.338C255.75 853.958 258.524 857.146 258.524 861.056V868.501C258.524 872.005 261.003 874.856 264.055 874.856C267.107 874.856 269.587 872.005 269.587 868.501V861.729C269.587 857.443 272.622 853.948 276.354 853.948C280.085 853.948 283.121 857.433 283.121 861.729V893.477C283.121 898.783 286.876 903.09 291.491 903.09C296.106 903.09 299.862 898.773 299.862 893.477V861.056C299.862 857.136 302.636 853.958 306.048 853.958C314.091 853.958 320.637 846.444 320.637 837.208L317.929 0.0197992M3.35475 0.455381L6.06314 833.486C6.06314 844.781 14.0574 853.968 23.8845 853.968C27.2966 853.968 30.0704 857.156 30.0704 861.066V883.35C30.0704 887.231 32.8197 890.389 36.1991 890.389C39.5784 890.389 42.3277 887.231 42.3277 883.35V861.066C42.3277 857.146 45.1016 853.968 48.5136 853.968C51.9257 853.968 54.6996 857.156 54.6996 861.066V865.788C54.6996 869.481 57.3179 872.49 60.5336 872.49C63.7493 872.49 66.3677 869.481 66.3677 865.788V861.066C66.3677 857.146 69.1416 853.968 72.5536 853.968H101.102C104.514 853.968 107.288 857.156 107.288 861.066V895.427C107.288 899.298 110.029 902.446 113.4 902.446C116.772 902.446 119.504 899.298 119.504 895.427V862.838C119.504 857.948 122.966 853.968 127.22 853.968C131.475 853.968 134.937 857.948 134.937 862.838V876.935C134.937 880.974 137.792 884.251 141.311 884.251C144.829 884.251 147.685 880.964 147.685 876.935V861.076C147.685 857.156 150.459 853.978 153.871 853.978H224.559C224.87 853.978 225.115 854.265 225.115 854.621C225.115 854.978 224.862 855.265 224.559 855.265H153.871C151.08 855.265 148.806 857.868 148.806 861.076V876.935C148.806 881.677 145.443 885.538 141.319 885.538C137.195 885.538 133.832 881.677 133.832 876.935V862.838C133.832 858.66 130.87 855.255 127.237 855.255C123.604 855.255 120.642 858.651 120.642 862.838V895.427C120.642 900.001 117.402 903.733 113.417 903.733C109.432 903.733 106.192 900.011 106.192 895.427V861.066C106.192 857.858 103.917 855.255 101.127 855.255H72.5782C69.788 855.255 67.5133 857.858 67.5133 861.066V865.788C67.5133 870.193 64.3957 873.777 60.5582 873.777C56.7206 873.777 53.6031 870.193 53.6031 865.788V861.066C53.6031 857.858 51.3284 855.255 48.5382 855.255C45.748 855.255 43.4732 857.858 43.4732 861.066V883.35C43.4732 887.933 40.2248 891.675 36.2318 891.675C32.2388 891.675 28.9903 887.943 28.9903 883.35V861.066C28.9903 857.858 26.7156 855.255 23.9254 855.255C13.4846 855.255 4.98306 845.494 4.98306 833.496L2.24194 0.47518" fill="#FE4243"/>
</svg>
