<svg width="42" height="43" viewBox="0 0 42 43" fill="none" xmlns="http://www.w3.org/2000/svg">
<path d="M31.4645 19.3825V26.3825C31.4645 26.8375 31.447 27.275 31.3945 27.695C30.992 32.42 28.2095 34.765 23.082 34.765H22.382C21.9445 34.765 21.5245 34.975 21.262 35.325L19.162 38.125C18.2345 39.3675 16.7295 39.3675 15.802 38.125L13.702 35.325C13.4745 35.0275 12.967 34.765 12.582 34.765H11.882C6.29953 34.765 3.49951 33.3825 3.49951 26.3825V19.3825C3.49951 14.255 5.86203 11.4725 10.5695 11.07C10.9895 11.0175 11.427 11 11.882 11H23.082C28.6645 11 31.4645 13.8 31.4645 19.3825Z" stroke="#00FFC2" stroke-width="2.59375" stroke-miterlimit="10" stroke-linecap="round" stroke-linejoin="round"/>
<path d="M38.4648 12.3825V19.3825C38.4648 24.5275 36.1023 27.2925 31.3948 27.695C31.4473 27.275 31.4648 26.8375 31.4648 26.3825V19.3825C31.4648 13.8 28.6648 11 23.0823 11H11.8823C11.4273 11 10.9898 11.0175 10.5698 11.07C10.9723 6.36252 13.7548 4 18.8823 4H30.0823C35.6648 4 38.4648 6.80002 38.4648 12.3825Z" stroke="#00FFC2" stroke-width="2.59375" stroke-miterlimit="10" stroke-linecap="round" stroke-linejoin="round"/>
<path d="M23.6171 23.6875H23.6329" stroke="#00FFC2" stroke-width="2.59375" stroke-linecap="round" stroke-linejoin="round"/>
<path d="M17.4916 23.6875H17.5074" stroke="#00FFC2" stroke-width="2.59375" stroke-linecap="round" stroke-linejoin="round"/>
<path d="M11.3671 23.6875H11.3829" stroke="#00FFC2" stroke-width="2.59375" stroke-linecap="round" stroke-linejoin="round"/>
</svg>
