<svg width="42" height="43" viewBox="0 0 42 43" fill="none" xmlns="http://www.w3.org/2000/svg">
<path d="M31.4996 14.3426C31.4471 14.3426 31.4121 14.3426 31.3596 14.3426H31.2721C27.9646 14.2376 25.4971 11.6826 25.4971 8.53258C25.4971 5.31258 28.1221 2.70508 31.3246 2.70508C34.5271 2.70508 37.1521 5.33008 37.1521 8.53258C37.1346 11.7001 34.6671 14.2551 31.5171 14.3601C31.5171 14.3426 31.5171 14.3426 31.4996 14.3426ZM31.3246 5.31259C29.5571 5.31259 28.1221 6.74759 28.1221 8.51509C28.1221 10.2476 29.4696 11.6476 31.2021 11.7176C31.2196 11.7001 31.3596 11.7001 31.5171 11.7176C33.2146 11.6301 34.5271 10.2301 34.5446 8.51509C34.5446 6.74759 33.1096 5.31259 31.3246 5.31259Z" fill="#00FFC2"/>
<path d="M31.5174 27.2401C30.8349 27.2401 30.1524 27.1876 29.4699 27.0651C28.7524 26.9426 28.2799 26.2601 28.4024 25.5426C28.5249 24.8251 29.2074 24.3526 29.9249 24.4751C32.0774 24.8426 34.3524 24.4402 35.8749 23.4252C36.6974 22.8827 37.1349 22.2001 37.1349 21.5176C37.1349 20.8351 36.6799 20.1701 35.8749 19.6276C34.3524 18.6126 32.0424 18.2101 29.8724 18.5951C29.1549 18.7351 28.4724 18.2451 28.3499 17.5276C28.2274 16.8101 28.6999 16.1276 29.4174 16.0051C32.2699 15.4976 35.2274 16.0401 37.3274 17.4401C38.8674 18.4726 39.7599 19.9426 39.7599 21.5176C39.7599 23.0751 38.8849 24.5627 37.3274 25.6127C35.7349 26.6627 33.6699 27.2401 31.5174 27.2401Z" fill="#00FFC2"/>
<path d="M10.4473 14.3425C10.4298 14.3425 10.4123 14.3425 10.4123 14.3425C7.26235 14.2375 4.79484 11.6825 4.77734 8.53249C4.77734 5.31249 7.40235 2.6875 10.6048 2.6875C13.8073 2.6875 16.4323 5.3125 16.4323 8.515C16.4323 11.6825 13.9648 14.2375 10.8148 14.3425L10.4473 13.03L10.5698 14.3425C10.5348 14.3425 10.4823 14.3425 10.4473 14.3425ZM10.6223 11.7175C10.7273 11.7175 10.8148 11.7175 10.9198 11.735C12.4773 11.665 13.8423 10.265 13.8423 8.53249C13.8423 6.76499 12.4073 5.32999 10.6398 5.32999C8.87235 5.32999 7.43734 6.76499 7.43734 8.53249C7.43734 10.2475 8.76734 11.63 10.4648 11.735C10.4823 11.7175 10.5523 11.7175 10.6223 11.7175Z" fill="#00FFC2"/>
<path d="M10.43 27.2401C8.2775 27.2401 6.2125 26.6627 4.62 25.6127C3.08 24.5802 2.1875 23.0926 2.1875 21.5176C2.1875 19.9601 3.08 18.4726 4.62 17.4401C6.72 16.0401 9.6775 15.4976 12.53 16.0051C13.2475 16.1276 13.72 16.8101 13.5975 17.5276C13.475 18.2451 12.7925 18.7351 12.075 18.5951C9.905 18.2101 7.6125 18.6126 6.0725 19.6276C5.25 20.1701 4.8125 20.8351 4.8125 21.5176C4.8125 22.2001 5.2675 22.8827 6.0725 23.4252C7.595 24.4402 9.87 24.8426 12.0225 24.4751C12.74 24.3526 13.4225 24.8426 13.545 25.5426C13.6675 26.2601 13.195 26.9426 12.4775 27.0651C11.795 27.1876 11.1125 27.2401 10.43 27.2401Z" fill="#00FFC2"/>
<path d="M20.9996 27.4149C20.9471 27.4149 20.9121 27.4149 20.8596 27.4149H20.7721C17.4646 27.3099 14.9971 24.7548 14.9971 21.6048C14.9971 18.3848 17.6221 15.7773 20.8246 15.7773C24.0271 15.7773 26.6521 18.4023 26.6521 21.6048C26.6346 24.7723 24.1671 27.3274 21.0171 27.4324C21.0171 27.4149 21.0171 27.4149 20.9996 27.4149ZM20.8246 18.3849C19.0571 18.3849 17.6221 19.8199 17.6221 21.5874C17.6221 23.3199 18.9696 24.7199 20.7021 24.7899C20.7196 24.7724 20.8596 24.7724 21.0171 24.7899C22.7146 24.7024 24.0271 23.3024 24.0446 21.5874C24.0446 19.8374 22.6096 18.3849 20.8246 18.3849Z" fill="#00FFC2"/>
<path d="M20.9997 40.3298C18.8997 40.3298 16.7997 39.7873 15.1722 38.6848C13.6322 37.6523 12.7397 36.1823 12.7397 34.6073C12.7397 33.0498 13.6147 31.5448 15.1722 30.5123C18.4447 28.3423 23.5723 28.3423 26.8273 30.5123C28.3673 31.5448 29.2598 33.0148 29.2598 34.5898C29.2598 36.1473 28.3848 37.6523 26.8273 38.6848C25.1998 39.7698 23.0997 40.3298 20.9997 40.3298ZM16.6247 32.7173C15.8022 33.2598 15.3647 33.9423 15.3647 34.6248C15.3647 35.3073 15.8197 35.9723 16.6247 36.5148C18.9872 38.1073 22.9948 38.1073 25.3573 36.5148C26.1798 35.9723 26.6172 35.2898 26.6172 34.6073C26.6172 33.9248 26.1623 33.2598 25.3573 32.7173C23.0123 31.1248 19.0047 31.1423 16.6247 32.7173Z" fill="#00FFC2"/>
</svg>
