<svg width="42" height="42" viewBox="0 0 42 42" fill="none" xmlns="http://www.w3.org/2000/svg">
<g clip-path="url(#clip0_745_47)">
<path d="M39.3747 25.6279C39.8188 23.9996 40.0556 22.2826 40.0556 20.5161C40.0556 9.73011 31.3123 0.986816 20.5263 0.986816C9.74028 0.986816 0.987122 9.73011 0.987122 20.5161C0.987122 31.3022 9.74028 40.0455 20.5263 40.0455C26.9308 40.0455 32.6248 36.9567 36.1873 32.1903" stroke="white" stroke-width="1.97366" stroke-linecap="round" stroke-linejoin="round"/>
<path d="M18.2366 9.72022C18.3649 9.84851 18.5228 9.89785 18.6708 9.89785C18.8188 9.89785 18.9964 9.83864 19.105 9.72022C19.3418 9.48338 19.3418 9.07878 19.105 8.83208L18.2859 8.01301H25.4503C25.7957 8.01301 26.0819 7.72683 26.072 7.38144C26.0621 7.03605 25.7858 6.74987 25.4404 6.75974H18.2859L19.105 5.95054C19.3418 5.7137 19.3418 5.3091 19.105 5.06239C18.8682 4.82556 18.4636 4.82556 18.2168 5.06239L16.3419 6.94724C16.105 7.18407 16.105 7.58867 16.3419 7.83538L18.2267 9.73009L18.2366 9.72022Z" fill="white"/>
<path d="M25.3029 33.4831L23.418 31.5983C23.1812 31.3614 22.7766 31.3614 22.5299 31.5983C22.293 31.8351 22.293 32.2397 22.5299 32.4864L23.3489 33.3055H16.1944C15.849 33.3055 15.5629 33.5917 15.5629 33.9371C15.5629 34.2825 15.849 34.5686 16.1944 34.5686H23.3588L22.5397 35.3877C22.3029 35.6245 22.3029 36.0291 22.5397 36.2758C22.668 36.4041 22.8259 36.4633 22.9739 36.4633C23.122 36.4633 23.2996 36.4041 23.4081 36.2758L25.293 34.391C25.5397 34.1344 25.5397 33.7397 25.293 33.493L25.3029 33.4831Z" fill="white"/>
<path d="M20.2306 11.8813H9.07945C7.03566 11.8813 5.37885 13.5382 5.37885 15.582V22.1542C5.37885 24.198 7.03566 25.8548 9.07945 25.8548H20.2306C22.2744 25.8548 23.9312 24.198 23.9312 22.1542V15.582C23.9312 13.5382 22.2744 11.8813 20.2306 11.8813Z" stroke="white" stroke-width="0.986828" stroke-miterlimit="10"/>
<path d="M23.9306 15.2561H31.4305C33.4732 15.2561 35.1311 16.914 35.1311 18.9567V25.529C35.1311 27.5717 33.4732 29.2296 31.4305 29.2296H20.2695C18.2267 29.2296 16.5688 27.5717 16.5688 25.529" stroke="white" stroke-width="0.986828" stroke-miterlimit="10"/>
</g>
<defs>
<clipPath id="clip0_745_47">
<rect width="41.0422" height="41.0422" fill="white"/>
</clipPath>
</defs>
</svg>
