<svg width="21" height="21" viewBox="0 0 21 21" fill="none" xmlns="http://www.w3.org/2000/svg">
<path d="M10.0212 18.9487C5.10465 18.9487 1.10181 14.9459 1.10181 10.0294C1.10181 5.11283 5.10465 1.10999 10.0212 1.10999C14.9377 1.10999 18.9405 5.11283 18.9405 10.0294C18.9405 14.9459 14.9377 18.9487 10.0212 18.9487ZM10.0212 2.41526C5.8182 2.41526 2.40708 5.83508 2.40708 10.0294C2.40708 14.2236 5.8182 17.6435 10.0212 17.6435C14.2242 17.6435 17.6353 14.2236 17.6353 10.0294C17.6353 5.83508 14.2242 2.41526 10.0212 2.41526Z" fill="#7AEEFF"/>
<path d="M19.1582 19.8189C18.9928 19.8189 18.8275 19.758 18.697 19.6275L16.9566 17.8871C16.7042 17.6348 16.7042 17.2171 16.9566 16.9647C17.209 16.7124 17.6266 16.7124 17.879 16.9647L19.6194 18.7051C19.8717 18.9574 19.8717 19.3751 19.6194 19.6275C19.4888 19.758 19.3235 19.8189 19.1582 19.8189Z" fill="#7AEEFF"/>
</svg>
