<svg width="44" height="45" viewBox="0 0 44 45" fill="none" xmlns="http://www.w3.org/2000/svg">
<path d="M40.5 21.8124H33.5C27.515 21.8124 25.1875 19.4849 25.1875 13.4999V6.49986C25.1875 5.97486 25.5025 5.48486 25.9925 5.29236C26.4825 5.08236 27.0425 5.20486 27.4275 5.57236L41.4275 19.5724C41.795 19.9399 41.9175 20.5174 41.7075 21.0074C41.4975 21.4974 41.025 21.8124 40.5 21.8124ZM27.8125 9.66736V13.4999C27.8125 18.0149 28.985 19.1874 33.5 19.1874H37.3325L27.8125 9.66736Z" fill="#00FFC2"/>
<path d="M24.75 27.0625H14.25C13.5325 27.0625 12.9375 26.4675 12.9375 25.75C12.9375 25.0325 13.5325 24.4375 14.25 24.4375H24.75C25.4675 24.4375 26.0625 25.0325 26.0625 25.75C26.0625 26.4675 25.4675 27.0625 24.75 27.0625Z" fill="#00FFC2"/>
<path d="M21.25 34.0625H14.25C13.5325 34.0625 12.9375 33.4675 12.9375 32.75C12.9375 32.0325 13.5325 31.4375 14.25 31.4375H21.25C21.9675 31.4375 22.5625 32.0325 22.5625 32.75C22.5625 33.4675 21.9675 34.0625 21.25 34.0625Z" fill="#00FFC2"/>
<path fill-rule="evenodd" clip-rule="evenodd" d="M6.8125 20.5311C5.87905 20.2489 4.99799 19.8461 4.1875 19.3406V29.25C4.1875 38.7525 8.2475 42.8125 17.75 42.8125H28.25C37.7525 42.8125 41.8125 38.7525 41.8125 29.25V20.5C41.8125 19.7825 41.2175 19.1875 40.5 19.1875C39.7825 19.1875 39.1875 19.7825 39.1875 20.5V29.25C39.1875 37.3175 36.3175 40.1875 28.25 40.1875H17.75C9.6825 40.1875 6.8125 37.3175 6.8125 29.25V20.5311ZM20.7825 7.8125H26.5C27.2175 7.8125 27.8125 7.2175 27.8125 6.5C27.8125 5.7825 27.2175 5.1875 26.5 5.1875H19.8942C20.2951 6.01027 20.5965 6.8905 20.7825 7.8125Z" fill="#00FFC2"/>
<path d="M7.61 16.126C7.28333 16.126 7.04533 16.0747 6.896 15.972C6.74667 15.8693 6.65333 15.7387 6.616 15.58C6.57867 15.412 6.56 15.2347 6.56 15.048V7.362C6.56 7.18467 6.57867 7.02133 6.616 6.872C6.65333 6.72267 6.74667 6.60133 6.896 6.508C7.05467 6.40533 7.30667 6.354 7.652 6.354C7.988 6.354 8.22133 6.396 8.352 6.48C8.48267 6.55467 8.59933 6.662 8.702 6.802L12.79 12.416V7.362C12.79 7.18467 12.8087 7.02133 12.846 6.872C12.8927 6.72267 12.9907 6.60133 13.14 6.508C13.2893 6.40533 13.532 6.354 13.868 6.354C14.2133 6.354 14.456 6.40533 14.596 6.508C14.7453 6.61067 14.834 6.746 14.862 6.914C14.8993 7.07267 14.918 7.24067 14.918 7.418V15.062C14.918 15.2393 14.8993 15.412 14.862 15.58C14.8247 15.7387 14.7313 15.8693 14.582 15.972C14.4327 16.0747 14.1853 16.126 13.84 16.126C13.5787 16.126 13.3733 16.1027 13.224 16.056C13.084 16.0093 12.9627 15.9207 12.86 15.79L8.688 10.134V15.062C8.688 15.2393 8.66933 15.412 8.632 15.58C8.59467 15.7387 8.50133 15.8693 8.352 15.972C8.20267 16.0747 7.95533 16.126 7.61 16.126Z" fill="#00FFC2"/>
<circle cx="11" cy="11" r="10" stroke="#00FFC2" stroke-width="2"/>
</svg>
