<svg width="46" height="42" viewBox="0 0 46 42" fill="none" xmlns="http://www.w3.org/2000/svg">
<g filter="url(#filter0_d_1554_10030)">
<path d="M36.292 9.66667L37.0404 9.61706C37.0204 9.3162 36.8223 9.05654 36.5373 8.95792C36.2524 8.8593 35.9361 8.94091 35.7344 9.16507L36.292 9.66667ZM35.1402 15.3027C35.1402 14.8885 34.8044 14.5527 34.3902 14.5527C33.976 14.5527 33.6402 14.8885 33.6402 15.3027H35.1402ZM22.9998 17V17.75H23.7498V17H22.9998ZM11.5683 9.66667L12.2707 9.40369C12.1661 9.12418 11.9056 8.93333 11.6076 8.9177C11.3096 8.90207 11.0306 9.06465 10.8973 9.33168L11.5683 9.66667ZM18.9998 27L19.5306 27.5299C19.7141 27.3461 19.7895 27.0804 19.7297 26.8276C19.67 26.5748 19.4837 26.3709 19.2373 26.2886L18.9998 27ZM9.6665 30.6191V29.8691C9.3361 29.8691 9.04462 30.0853 8.94876 30.4015C8.8529 30.7177 8.97525 31.0593 9.25003 31.2428L9.6665 30.6191ZM32.9352 11.5207L32.3789 12.0237L32.6491 12.3226L33.0475 12.2623L32.9352 11.5207ZM35.5437 9.71629C35.6426 11.208 35.5535 12.1399 35.2996 12.8554C35.0514 13.5552 34.6192 14.1228 33.8713 14.8394L34.9091 15.9225C35.7328 15.1332 36.3529 14.373 36.7133 13.3569C37.0682 12.3564 37.1443 11.1841 37.0404 9.61706L35.5437 9.71629ZM35.1402 16.6905V15.381H33.6402V16.6905H35.1402ZM35.1402 15.381V15.3027H33.6402V15.381H35.1402ZM22.2498 15.6667V17H23.7498V15.6667H22.2498ZM28.7629 8.91667C25.1163 8.91667 22.2498 12.0925 22.2498 15.6667H23.7498C23.7498 12.8425 26.0211 10.4167 28.7629 10.4167V8.91667ZM33.6402 16.6905C33.6402 25.0356 26.6353 32.25 18.3332 32.25V33.75C27.493 33.75 35.1402 25.8344 35.1402 16.6905H33.6402ZM10.8659 9.92966C11.8945 12.6767 15.7581 17.75 22.9998 17.75V16.25C16.5485 16.25 13.144 11.736 12.2707 9.40369L10.8659 9.92966ZM10.8973 9.33168C8.92483 13.2827 8.58811 17.1338 9.95638 20.4082C11.3247 23.6827 14.3367 26.2339 18.7623 27.7114L19.2373 26.2886C15.1047 24.9089 12.4992 22.6031 11.3404 19.8299C10.1816 17.0567 10.4082 13.6697 12.2394 10.0017L10.8973 9.33168ZM18.4691 26.4701C17.308 27.633 13.9884 29.8691 9.6665 29.8691V31.3691C14.4733 31.3691 18.1559 28.9067 19.5306 27.5299L18.4691 26.4701ZM33.4915 11.0177C32.3258 9.72851 30.6386 8.91667 28.7629 8.91667V10.4167C30.1966 10.4167 31.4853 11.0355 32.3789 12.0237L33.4915 11.0177ZM33.0475 12.2623C34.448 12.0502 35.8194 11.3134 36.8496 10.1683L35.7344 9.16507C34.9274 10.0621 33.8666 10.6211 32.8229 10.7792L33.0475 12.2623ZM9.25003 31.2428C12.2651 33.256 15.167 33.75 18.3332 33.75V32.25C15.353 32.25 12.7733 31.7917 10.083 29.9953L9.25003 31.2428Z" fill="white"/>
</g>
<defs>
<filter id="filter0_d_1554_10030" x="0.970274" y="-0.94623" width="44.059" height="43.8925" filterUnits="userSpaceOnUse" color-interpolation-filters="sRGB">
<feFlood flood-opacity="0" result="BackgroundImageFix"/>
<feColorMatrix in="SourceAlpha" type="matrix" values="0 0 0 0 0 0 0 0 0 0 0 0 0 0 0 0 0 0 127 0" result="hardAlpha"/>
<feOffset/>
<feGaussianBlur stdDeviation="3.97311"/>
<feColorMatrix type="matrix" values="0 0 0 0 1 0 0 0 0 1 0 0 0 0 1 0 0 0 1 0"/>
<feBlend mode="normal" in2="BackgroundImageFix" result="effect1_dropShadow_1554_10030"/>
<feBlend mode="normal" in="SourceGraphic" in2="effect1_dropShadow_1554_10030" result="shape"/>
</filter>
</defs>
</svg>
