<svg width="42" height="42" viewBox="0 0 42 42" fill="none" xmlns="http://www.w3.org/2000/svg">
<g filter="url(#filter0_d_14_16706)">
<path d="M20.9997 33.5417C14.0813 33.5417 8.45801 27.9183 8.45801 21C8.45801 14.0817 14.0813 8.45833 20.9997 8.45833C27.918 8.45833 33.5413 14.0817 33.5413 21C33.5413 27.9183 27.918 33.5417 20.9997 33.5417ZM20.9997 10.2083C15.0497 10.2083 10.208 15.05 10.208 21C10.208 26.95 15.0497 31.7917 20.9997 31.7917C26.9497 31.7917 31.7913 26.95 31.7913 21C31.7913 15.05 26.9497 10.2083 20.9997 10.2083Z" fill="white"/>
<path d="M17.5003 32.375H16.3336C15.8553 32.375 15.4586 31.9783 15.4586 31.5C15.4586 31.0217 15.8319 30.6367 16.3103 30.625C14.4786 24.3717 14.4786 17.6283 16.3103 11.375C15.8319 11.3633 15.4586 10.9783 15.4586 10.5C15.4586 10.0217 15.8553 9.625 16.3336 9.625H17.5003C17.7803 9.625 18.0486 9.765 18.2119 9.98667C18.3753 10.22 18.4219 10.5117 18.3286 10.78C16.1353 17.3717 16.1353 24.6283 18.3286 31.2317C18.4219 31.5 18.3753 31.7917 18.2119 32.025C18.0486 32.235 17.7803 32.375 17.5003 32.375Z" fill="white"/>
<path d="M24.4998 32.375C24.4065 32.375 24.3131 32.3633 24.2198 32.3283C23.7648 32.1767 23.5081 31.675 23.6715 31.22C25.8648 24.6283 25.8648 17.3717 23.6715 10.7683C23.5198 10.3133 23.7648 9.81167 24.2198 9.66001C24.6865 9.50834 25.1765 9.75334 25.3281 10.2083C27.6498 17.1617 27.6498 24.815 25.3281 31.7567C25.2115 32.1417 24.8615 32.375 24.4998 32.375Z" fill="white"/>
<path d="M21 27.0667C17.745 27.0667 14.5017 26.6117 11.375 25.69C11.3633 26.1567 10.9783 26.5417 10.5 26.5417C10.0217 26.5417 9.625 26.145 9.625 25.6667V24.5C9.625 24.22 9.765 23.9517 9.98667 23.7883C10.22 23.625 10.5117 23.5783 10.78 23.6717C17.3717 25.865 24.64 25.865 31.2317 23.6717C31.5 23.5783 31.7917 23.625 32.025 23.7883C32.2583 23.9517 32.3867 24.22 32.3867 24.5V25.6667C32.3867 26.145 31.99 26.5417 31.5117 26.5417C31.0333 26.5417 30.6483 26.1683 30.6367 25.69C27.4983 26.6117 24.255 27.0667 21 27.0667Z" fill="white"/>
<path d="M31.5004 18.375C31.4071 18.375 31.3137 18.3633 31.2204 18.3283C24.6287 16.135 17.3604 16.135 10.7687 18.3283C10.3021 18.48 9.81207 18.235 9.6604 17.78C9.5204 17.3133 9.7654 16.8233 10.2204 16.6717C17.1737 14.35 24.8271 14.35 31.7687 16.6717C32.2237 16.8233 32.4804 17.325 32.3171 17.78C32.2121 18.1417 31.8621 18.375 31.5004 18.375Z" fill="white"/>
</g>
<defs>
<filter id="filter0_d_14_16706" x="-0.94623" y="-0.94623" width="43.8925" height="43.8925" filterUnits="userSpaceOnUse" color-interpolation-filters="sRGB">
<feFlood flood-opacity="0" result="BackgroundImageFix"/>
<feColorMatrix in="SourceAlpha" type="matrix" values="0 0 0 0 0 0 0 0 0 0 0 0 0 0 0 0 0 0 127 0" result="hardAlpha"/>
<feOffset/>
<feGaussianBlur stdDeviation="3.97311"/>
<feColorMatrix type="matrix" values="0 0 0 0 1 0 0 0 0 1 0 0 0 0 1 0 0 0 1 0"/>
<feBlend mode="normal" in2="BackgroundImageFix" result="effect1_dropShadow_14_16706"/>
<feBlend mode="normal" in="SourceGraphic" in2="effect1_dropShadow_14_16706" result="shape"/>
</filter>
</defs>
</svg>
