<svg width="44" height="38" viewBox="0 0 44 38" fill="none" xmlns="http://www.w3.org/2000/svg">
<g filter="url(#filter0_d_14_16705)">
<path d="M31.2996 10.4557C34.2989 14.9053 35.787 19.901 35.2727 25.6446C33.1007 27.2152 30.9946 28.2029 28.9151 28.8738C28.5583 28.3604 28.2264 27.8279 27.9231 27.2768C28.547 27.0192 29.1473 26.7221 29.7291 26.3821C30.1008 26.165 30.1139 25.6479 29.7831 25.4017L29.783 25.4015C29.6437 25.298 29.5048 25.1886 29.3717 25.0789L29.3717 25.0788L29.3654 25.0738C29.1971 24.9396 28.9598 24.9025 28.7508 25.0009C24.398 27.0112 19.6355 27.0118 15.2266 24.9989L15.223 24.9973C15.023 24.9078 14.7842 24.9361 14.6095 25.0815L14.9293 25.4658M31.2996 10.4557L8.24161 25.8743C7.75822 20.6975 8.7436 15.4557 12.3406 10.0819C12.3493 10.0676 12.3625 10.0566 12.3778 10.05C14.1473 9.23743 16.0437 8.6396 18.0254 8.2983M31.2996 10.4557C29.6871 9.72601 27.9674 9.17759 26.1731 8.8432C25.9799 9.21102 25.7813 9.63399 25.6335 9.9814L25.4821 10.3375L25.0994 10.2802C23.0154 9.96819 20.9441 9.96842 18.9058 10.28L18.519 10.3391L18.3687 9.97781C18.2236 9.6292 18.0196 9.21189 17.8214 8.84275C16.027 9.17627 14.3063 9.72502 12.692 10.4562C9.25775 15.6309 8.29213 20.6652 8.72301 25.6451C10.8953 27.2158 13.0016 28.2036 15.0722 28.8744C15.4342 28.3615 15.7663 27.8294 16.0652 27.2783C15.4394 27.0175 14.839 26.7164 14.2595 26.384L14.256 26.3821C13.8949 26.1711 13.8608 25.6561 14.1996 25.4026M31.2996 10.4557L14.5082 25.9503C14.4535 25.9184 14.4491 25.8402 14.4994 25.8027M14.9293 25.4658C14.8937 25.4951 14.8578 25.5243 14.8215 25.5534C14.8 25.5412 14.7784 25.5289 14.7569 25.5165L14.6652 25.6766C14.6102 25.7191 14.5548 25.7613 14.4994 25.8027M14.9293 25.4658L14.6112 25.08C14.4793 25.1887 14.3401 25.2973 14.1996 25.4026M14.9293 25.4658C14.9544 25.4449 14.9894 25.4405 15.019 25.4537C19.5597 27.5269 24.4757 27.5269 28.9629 25.4537C28.9924 25.4394 29.0275 25.4438 29.0537 25.4647C29.0899 25.4946 29.1265 25.5244 29.1635 25.5541C29.1839 25.5424 29.2043 25.5305 29.2246 25.5186C29.2043 25.5305 29.1854 25.5437 29.1682 25.5579C29.2168 25.5969 29.266 25.6358 29.3156 25.6743C29.3157 25.6744 29.3158 25.6745 29.3159 25.6745C29.3718 25.7179 29.4281 25.7607 29.4846 25.8027C29.5349 25.8402 29.5316 25.9184 29.4769 25.9503C29.4177 25.9849 29.3583 26.0191 29.2986 26.0528L29.1862 26.2039C29.1862 26.2039 29.1861 26.2039 29.186 26.2038M14.4994 25.8027L14.2009 25.4017C14.2005 25.402 14.2 25.4023 14.1996 25.4026M14.4994 25.8027L14.1996 25.4026M29.186 26.2038L29.2983 26.053C29.241 26.0854 29.1834 26.1174 29.1257 26.1489C29.1436 26.1688 29.1637 26.1872 29.186 26.2038ZM29.186 26.2038C29.1634 26.187 29.1408 26.17 29.1183 26.153C28.5378 26.4699 27.9374 26.7446 27.3115 26.9808M27.3115 26.9808C27.2623 26.9995 27.2404 27.0568 27.2645 27.1041M27.3115 26.9808L27.3428 27.0637M27.3115 26.9808L27.343 27.0636L27.3428 27.0637M27.2645 27.1041C27.6812 27.9111 28.1569 28.6796 28.6807 29.4084C28.7026 29.4393 28.742 29.4525 28.7781 29.4415M27.2645 27.1041L27.3428 27.0637M27.2645 27.1041L27.343 27.0642L27.3428 27.0637M28.7781 29.4415C31.0452 28.7402 33.344 27.6821 35.7173 25.9393C35.738 25.9239 35.7512 25.9007 35.7534 25.8754C36.3319 19.8905 34.7844 14.6917 31.6511 10.083C31.6434 10.0676 31.6303 10.0566 31.615 10.05C29.8466 9.23852 27.9502 8.6407 25.9674 8.2983C25.9313 8.29169 25.8953 8.3082 25.8767 8.34123M28.7781 29.4415L28.7525 29.3575L28.7523 29.357L28.6321 28.9632C28.7991 28.9123 28.9825 28.9719 29.0868 29.1166M28.7781 29.4415L29.0868 29.1166M25.8767 8.34123C25.6328 8.77501 25.3626 9.34091 25.1734 9.7857C23.0408 9.46643 20.9192 9.46643 18.8303 9.7857C18.6411 9.33102 18.3611 8.77501 18.1161 8.34123M25.8767 8.34123L25.9518 8.38357L25.9526 8.38402L26.3123 8.58659C26.227 8.73813 26.0543 8.82034 25.8824 8.791L25.8767 8.34123ZM18.1161 8.34123C18.0975 8.3093 18.0615 8.29279 18.0254 8.2983M18.1161 8.34123L18.0401 8.38415L18.0254 8.2983M18.1161 8.34123L18.0404 8.38538L18.0386 8.38503L18.0254 8.2983M29.0868 29.1166L29.0885 29.119C29.0879 29.1182 29.0873 29.1174 29.0868 29.1166ZM18.0388 8.3863L18.1007 8.79258C17.9401 8.81707 17.7719 8.74368 17.6841 8.59294L18.0388 8.3863ZM8.73977 25.8313L8.73945 25.8278L8.73977 25.8313ZM14.798 26.2038L14.7993 26.2029L14.798 26.2038ZM27.3432 27.0641L27.7102 26.8774C27.8191 27.0917 27.7215 27.3598 27.4893 27.4481L27.3432 27.0641ZM14.4052 19.9257C14.4052 21.6888 15.704 23.2222 17.3987 23.2222C19.1168 23.2222 20.3905 21.6879 20.3922 19.9293C20.4156 18.172 19.1243 16.6293 17.3987 16.6293C15.6795 16.6293 14.4052 18.1656 14.4052 19.9257ZM23.6246 19.9257C23.6246 21.6888 24.9235 23.2222 26.6181 23.2222C28.3484 23.2222 29.6099 21.6864 29.6117 19.9294C29.635 18.1721 28.3438 16.6293 26.6181 16.6293C24.8989 16.6293 23.6246 18.1657 23.6246 19.9257Z" stroke="white"/>
</g>
<defs>
<filter id="filter0_d_14_16705" x="0.0537701" y="-3.94623" width="43.8925" height="43.8925" filterUnits="userSpaceOnUse" color-interpolation-filters="sRGB">
<feFlood flood-opacity="0" result="BackgroundImageFix"/>
<feColorMatrix in="SourceAlpha" type="matrix" values="0 0 0 0 0 0 0 0 0 0 0 0 0 0 0 0 0 0 127 0" result="hardAlpha"/>
<feOffset/>
<feGaussianBlur stdDeviation="3.97311"/>
<feColorMatrix type="matrix" values="0 0 0 0 1 0 0 0 0 1 0 0 0 0 1 0 0 0 1 0"/>
<feBlend mode="normal" in2="BackgroundImageFix" result="effect1_dropShadow_14_16705"/>
<feBlend mode="normal" in="SourceGraphic" in2="effect1_dropShadow_14_16705" result="shape"/>
</filter>
</defs>
</svg>
